<?xml version="1.0" encoding="UTF-8" standalone="no"?>
<!-- Created with Inkscape (http://www.inkscape.org/) -->

<svg
   xmlns:dc="http://purl.org/dc/elements/1.1/"
   xmlns:cc="http://creativecommons.org/ns#"
   xmlns:rdf="http://www.w3.org/1999/02/22-rdf-syntax-ns#"
   xmlns:svg="http://www.w3.org/2000/svg"
   xmlns="http://www.w3.org/2000/svg"
   xmlns:sodipodi="http://sodipodi.sourceforge.net/DTD/sodipodi-0.dtd"
   xmlns:inkscape="http://www.inkscape.org/namespaces/inkscape"
   version="1.1"
   id="svg3753"
   width="807"
   height="491"
   viewBox="0 0 807 491"
   sodipodi:docname="claricia_logo.svg"
   inkscape:version="0.92.4 (5da689c313, 2019-01-14)"
   inkscape:export-filename="C:\Users\arlin\Desktop\claricia_logof.png"
   inkscape:export-xdpi="96"
   inkscape:export-ydpi="96">
  <metadata
     id="metadata3759">
    <rdf:RDF>
      <cc:Work
         rdf:about="">
        <dc:format>image/svg+xml</dc:format>
        <dc:type
           rdf:resource="http://purl.org/dc/dcmitype/StillImage" />
        <dc:title />
      </cc:Work>
    </rdf:RDF>
  </metadata>
  <defs
     id="defs3757" />
  <sodipodi:namedview
     pagecolor="#ffffff"
     bordercolor="#666666"
     borderopacity="1"
     objecttolerance="10"
     gridtolerance="10"
     guidetolerance="10"
     inkscape:pageopacity="0"
     inkscape:pageshadow="2"
     inkscape:window-width="1366"
     inkscape:window-height="705"
     id="namedview3755"
     showgrid="false"
     inkscape:zoom="1"
     inkscape:cx="425.85703"
     inkscape:cy="230.22222"
     inkscape:window-x="-8"
     inkscape:window-y="-8"
     inkscape:window-maximized="1"
     inkscape:current-layer="layer1" />
  <g
     inkscape:groupmode="layer"
     id="layer1"
     inkscape:label="BackGround"
     style="display:inline;opacity:1" />
  <g
     inkscape:groupmode="layer"
     id="layer2"
     inkscape:label="Claricia"
     style="display:inline">
    <path
       style="opacity:1;fill:#ffffff;fill-opacity:1;stroke:none;stroke-width:0.99887395;stroke-linejoin:round;stroke-miterlimit:4;stroke-dasharray:none;stroke-opacity:1"
       d="m 366.35493,465.75411 c 6.00234,-2.50932 12.77335,-9.24425 14.04739,-13.97262 1.80059,-6.68223 -2.23261,-15.1132 -8.93612,-18.68018 -2.52232,-1.34215 -8.82873,-0.80924 -12.28246,1.0379 -2.54,1.35848 -5.80663,6.8014 -5.81133,9.68304 -0.0101,3.37874 4.46756,7.48129 7.25519,6.65419 5.01938,-1.48923 6.1347,-6.24109 2.29876,-9.79377 -2.35209,-2.1784 -2.36848,-2.28834 -0.51304,-3.44629 3.42618,-2.13826 7.55448,-1.42513 10.85727,1.87548 1.69052,1.6894 3.12698,3.5986 3.19203,4.24268 1.09163,10.80171 -1.61869,14.9235 -11.9672,18.19951 -13.47781,4.26664 -24.75834,-0.11701 -30.81003,-11.97286 -2.25411,-4.41607 -2.49914,-6.01025 -2.3621,-15.36852 0.15824,-10.79968 2.23902,-19.45115 5.44992,-22.65994 0.8478,-0.84716 2.34373,-2.9203 3.32447,-4.60696 0.98078,-1.68667 5.22287,-5.82565 9.4269,-9.19773 10.7582,-8.62921 25.38318,-14.28902 41.80385,-16.178 13.15256,-1.51301 23.82613,-2.11209 31.6787,-1.77807 4.82809,0.2054 14.28314,0.47931 21.01132,0.6087 6.72816,0.12941 12.23482,0.51382 12.23702,0.85425 0,0.34043 -2.13115,1.16823 -4.74087,1.83956 -2.60974,0.67132 -5.73033,1.69009 -6.93464,2.26395 -3.33956,1.59136 -10.291,8.82963 -12.24212,12.74735 -2.22804,4.47363 -2.60622,13.70965 -0.74381,18.16406 1.53346,3.66768 7.31174,10.78593 8.75551,10.78593 0.4758,0 0.80305,-1.64694 0.72732,-3.65988 -0.12326,-3.27655 0.50137,-4.24371 5.96367,-9.23405 5.46122,-4.98928 10.8488,-13.50719 16.07946,-25.42208 0.21267,-0.48438 -1.03131,-0.67272 -2.76437,-0.41853 -4.96624,0.72842 -3.13629,-1.47224 2.83668,-3.41124 5.20339,-1.68914 5.54892,-1.66942 22.40144,1.27865 9.41411,1.64682 19.13941,3.44736 21.61178,4.00117 6.4012,1.43389 7.88273,1.69978 13.44953,2.41377 4.72578,0.6061 19.16416,4.28005 33.77047,8.59308 3.71966,1.09834 8.43966,2.21055 10.48888,2.47156 2.04922,0.261 7.99642,1.56083 13.21587,2.8885 9.32902,2.37306 22.60074,5.15849 30.46768,6.39453 5.90764,0.9282 52.07335,0.76245 58.35639,-0.20951 2.97695,-0.46051 6.34837,-1.19285 7.49206,-1.62739 1.14368,-0.43454 2.42312,-0.80551 2.8431,-0.82437 3.27602,-0.14706 10.341,-1.87522 17.36197,-4.24687 4.59043,-1.55065 8.34633,-2.64498 8.34633,-2.43184 0,0.43705 18.53275,-7.0055 21.21391,-8.51925 2.14293,-1.20992 2.76067,-1.23163 2.76067,-0.097 0,0.48527 -2.84677,2.29699 -6.32609,4.02603 -11.23268,5.58196 -17.56877,14.43753 -19.21773,26.8592 -0.89324,6.72973 0.10444,11.45007 3.19614,15.12198 3.37081,4.00328 4.61198,3.84843 3.80056,-0.47414 -0.80157,-4.26942 0.36281,-6.22542 8.07603,-13.56685 6.60957,-6.29107 7.51652,-7.86342 11.95182,-20.72088 6.1064,-17.70223 5.5687,-16.81809 13.5974,-22.35378 10.0686,-6.94217 22.1102,-18.25401 27.554,-25.88422 4.0903,-5.733 12.3769,-21.76948 15.1283,-29.27675 3.0889,-8.42826 4.1249,-15.50563 3.8099,-26.0273 -0.3045,-10.17217 -0.5563,-11.34333 -3.7274,-17.34147 -1.8704,-3.5379 -5.2341,-8.36708 -7.475,-10.73147 -3.4661,-3.65712 -4.6647,-4.29886 -8.03,-4.29886 -2.1758,0 -5.6564,0.86644 -7.7348,1.92538 -4.2261,2.15312 -11.1292,2.99799 -12.5027,1.53017 -2.4465,-2.61449 -2.0957,-5.29007 1.368,-10.43362 3.9734,-5.90057 3.5279,-7.99606 -1.6999,-7.99606 -2.2951,0 -4.2806,1.34007 -8.8353,5.96283 -6.4869,6.58406 -13.25129,10.58531 -19.57369,11.57803 -7.76666,1.21952 -14.33729,-2.85629 -14.33729,-8.89349 0,-4.43018 3.94772,-11.44567 8.76061,-15.56817 2.59875,-2.22604 5.08039,-4.05023 5.51475,-4.05379 0.43422,-0.004 2.00756,-0.88975 3.49629,-1.96936 1.48863,-1.07959 4.20045,-2.21485 6.0262,-2.52279 4.89093,-0.82486 15.96403,-1.034 16.68343,-0.31507 0.8957,0.89512 -2.212,6.525 -4.2226,7.64939 -1.4554,0.81399 -1.5043,1.18794 -0.3389,2.59128 1.2346,1.48661 1.7266,1.28553 5.2601,-2.14951 9.8477,-9.57319 11.665,-18.82101 4.1835,-21.28849 -6.0389,-1.99167 -10.5566,-1.75317 -18.9538,1.00062 -9.35678,3.06846 -15.49836,6.97491 -25.15361,15.9992 -6.46404,6.04164 -27.9067,19.37991 -32.84256,20.42957 -1.0329,0.21964 -5.12856,1.55276 -9.10155,2.96247 -7.8163,2.77347 -11.3007,3.14419 -14.3291,1.52451 -1.84624,-0.98743 -1.75073,-1.31962 1.93815,-6.73836 2.13403,-3.13486 7.77874,-10.14313 12.54379,-15.57396 9.4358,-10.75406 11.85263,-14.5557 11.37683,-17.89549 -0.2799,-1.96546 -0.89654,-2.17652 -6.3039,-2.15783 -9.73178,0.0336 -20.63821,6.49908 -39.415,23.36548 -13.26783,11.91801 -22.58784,18.19599 -36.70387,24.72393 -13.56071,6.27113 -21.68928,7.65141 -27.57084,4.68172 -8.21179,-4.14625 -10.57608,-9.20926 -8.32447,-17.82608 4.17557,-15.97912 25.16041,-29.93996 39.74713,-26.44299 2.60673,0.62494 5.26612,1.77022 5.90954,2.54506 1.62316,1.95451 -0.36092,6.45129 -5.78007,13.1002 -2.35479,2.88909 -4.28136,5.70846 -4.28136,6.26527 0,4.69346 11.27714,-6.96722 16.12069,-16.66886 3.84971,-7.71109 3.44625,-11.66688 -1.64564,-16.13465 -4.11363,-3.60934 -8.31888,-4.54133 -17.52221,-3.88328 -11.46934,0.82008 -21.4008,7.30995 -33.42475,21.84193 -1.64245,1.98503 -5.23386,5.1767 -7.98094,7.09261 -6.07294,4.23544 -24.80738,14.72599 -27.22422,15.24447 -0.95977,0.20589 -5.0829,1.52752 -9.16238,2.93692 -8.07593,2.7901 -11.15017,3.12048 -14.143,1.51984 -1.87431,-1.00244 -1.82706,-1.2241 1.22371,-5.74009 2.95435,-4.37319 16.20381,-20.4716 20.03376,-24.34144 2.65089,-2.67853 4.95004,-7.72794 4.6089,-10.12221 -0.2799,-1.96546 -0.89654,-2.17652 -6.30391,-2.15783 -7.0733,0.0244 -16.05018,4.09371 -25.31165,11.47392 -21.63145,17.23747 -30.41584,21.99814 -36.74132,19.91193 -10.48641,-5.02743 -3.66491,-17.48039 -0.52554,-22.3006 2.82669,-4.3256 5.13944,-8.69518 5.13944,-9.71017 0,-1.01501 -1.14418,-2.59467 -2.5427,-3.51035 -2.19418,-1.43675 -3.11819,-1.49509 -6.74285,-0.42583 -2.31005,0.68147 -5.54871,2.03802 -7.19696,3.01454 -4.26838,2.52881 -15.96287,7.01636 -18.28461,7.01636 -1.10372,0 -2.18327,-0.85071 -2.47007,-1.94642 -0.71705,-2.74029 -6.56293,-6.03232 -10.71194,-6.03232 -1.92297,0 -4.95724,0.89016 -6.74286,1.97815 -2.65099,1.61523 -3.24654,2.60875 -3.24654,5.41546 0,3.60037 1.69541,6.02747 4.92627,7.05223 1.84992,0.58677 1.82936,0.80928 -0.5849,6.30462 -3.70655,8.43683 -11.03149,22.73974 -15.59823,30.45758 -4.29214,7.2538 -4.12523,9.49839 0.61784,8.30875 12.66901,-9.09557 22.32729,-24.72023 28.69397,-37.92677 l 4.96164,-10.37979 7.7213,-1.99197 c 4.24669,-1.09557 8.58599,-2.34988 9.64287,-2.78733 1.44567,-0.59841 1.78881,-0.44342 1.38562,0.62579 -0.29478,0.78165 -1.36835,4.66597 -2.38567,8.63188 -3.60544,12.14587 2.99314,23.58502 15.69905,22.99783 6.61897,-0.63558 21.15854,-8.8248 31.41478,-17.69407 5.80334,-5.01851 14.39843,-11.0845 14.39843,-10.1617 0,0.42933 -1.68571,3.08195 -3.74604,5.89475 -11.17495,15.25628 -14.52358,20.84774 -16.19081,27.03553 -2.0768,7.70747 1.89988,9.82952 13.44373,7.1739 2.19767,-0.50556 5.43904,-1.17172 7.20315,-1.48035 9.36167,-1.63783 37.81519,-14.46069 43.94579,-19.8046 2.75148,-2.39834 4.30198,-2.35771 4.18812,-0.86275 -0.30192,1.42622 -1.99105,6.39039 -2.02437,11.16688 0.71323,16.82373 12.53172,20.14939 23.33849,19.74128 9.9117,-0.40734 10.62165,-0.59533 21.1106,-5.58932 14.05599,-6.69233 24.37006,-13.72272 38.71754,-26.3909 12.23812,-10.80574 21.85272,-18.21822 21.85272,-16.84767 0,0.44953 -1.48823,2.79112 -3.30709,5.20355 -7.3567,9.75733 -14.95874,22.15262 -16.28294,26.5498 -2.96555,9.84705 0.32995,10.9449 20.50346,6.83058 7.69533,-1.56943 31.70616,-11.7555 39.91016,-16.93097 l 4.00447,-2.52624 -1.5342,3.66937 c -2.71262,6.48776 -0.21416,13.70936 5.82223,16.82881 4.77663,2.46842 13.14566,3.28869 18.74501,1.8372 5.67768,-1.47178 10.18939,-3.67186 11.99939,-5.85133 1.4269,-1.71814 3.5474,-2.17447 2.5408,-0.54676 -0.3457,0.55907 0.3304,2.5673 1.5027,4.46277 3.8074,6.15642 13.2312,7.24826 21.6381,2.50696 2.9204,-1.64716 5.9898,-2.99483 6.8206,-2.99483 2.7237,0 9.2369,6.90989 12.0147,12.74649 8.8322,18.55719 2.1693,46.29737 -16.2367,67.60071 -14.0427,16.25313 -26.042,26.07389 -43.11938,35.29093 -6.26864,3.38332 -11.73884,6.1515 -12.156,6.1515 -0.41724,0 -2.03114,0.63924 -3.58658,1.42053 -5.83242,2.92961 -15.99984,6.56616 -21.3084,7.62132 -3.0218,0.60063 -7.12275,1.50818 -9.11325,2.0168 -1.99037,0.50861 -6.31319,1.20616 -9.6062,1.55011 l -5.98724,0.62538 -8.81476,-6.53511 c -12.63788,-9.36956 -15.56818,-10.61497 -27.38933,-11.64111 -8.66201,-0.75188 -10.60296,-1.25949 -13.62566,-3.56348 -1.93864,-1.47768 -3.7653,-3.31301 -4.05919,-4.07849 -1.08686,-2.83049 -2.31854,-1.26187 -2.31854,2.95281 0,2.86895 0.76339,5.45776 2.24763,7.62191 2.16669,3.15929 13.13215,10.57401 15.88873,10.74375 0.73862,0.0454 4.04011,0.98213 7.33662,2.08143 3.2965,1.09931 7.56698,2.46553 9.48992,3.03606 2.65738,0.78843 0.38041,0.90898 -9.48992,0.50243 -13.10189,-0.53967 -24.91647,-1.91342 -26.8788,-3.12542 -0.58556,-0.36171 -3.09371,-0.76992 -5.57338,-0.90713 -5.19958,-0.28771 -16.54194,-2.89675 -36.47469,-8.39013 -3.84594,-1.05991 -8.34116,-2.17019 -9.98942,-2.46727 -3.02768,-0.54571 -8.61635,-1.89985 -20.47827,-4.96192 -3.57122,-0.92186 -7.39216,-1.84945 -8.49099,-2.06128 -1.09884,-0.21186 -4.24549,-0.85075 -6.99258,-1.41977 -2.74709,-0.56902 -7.9166,-1.51141 -11.48783,-2.09419 -20.66197,-3.37182 -37.19953,-5.89645 -42.45495,-6.48126 -3.2965,-0.36681 -6.89269,-0.83138 -7.99152,-1.03236 -11.77032,-2.15287 -55.89151,-2.0715 -59.42285,0.10961 -0.35883,0.22157 -2.86877,0.6883 -5.5777,1.03716 -6.40481,0.82485 -17.13072,4.03276 -25.89084,7.74345 -7.86955,3.3335 -16.55074,9.62193 -21.99276,15.93099 -6.63926,7.6971 -12.4343,23.36872 -12.46818,33.71781 -0.0201,6.1322 3.14336,17.08334 6.3209,21.88166 6.28075,9.48457 22.09487,13.62784 33.62203,8.80888 z m 312.64863,-88.70636 c 3.3991,-4.29725 3.77519,-4.51256 4.85724,-2.78096 2.15063,3.44142 6.96074,2.43115 11.63477,-2.44362 4.58873,-4.78591 9.78762,-13.3742 8.93271,-14.75647 -1.13688,-1.83829 -2.56018,-0.75593 -4.4105,3.35416 -1.87752,4.17036 -10.0062,13.1951 -10.0062,11.10919 0,-1.15068 2.34532,-8.15651 6.05039,-18.07309 1.27725,-3.41836 2.06491,-6.47231 1.75043,-6.78658 -0.31446,-0.31426 -2.39566,0.21825 -4.62488,1.18336 -3.54934,1.53667 -4.38275,2.56626 -6.70608,8.284 -4.22522,10.39871 -7.4601,16.70334 -9.53129,18.57657 -2.76148,2.49737 -2.49906,0.69954 1.6038,-10.99066 2.04553,-5.8284 3.11469,-10.29253 2.59044,-10.81641 -1.84772,-1.84644 -10.00349,3.88068 -10.0809,7.07893 -0.058,2.38645 -12.46088,11.84341 -16.49081,12.57369 l -2.56886,0.46552 1.97409,-2.77061 c 1.08586,-1.52383 6.08464,-7.33595 11.10851,-12.91583 8.9529,-9.94374 9.22162,-10.14524 13.53345,-10.14524 5.21626,0 6.37954,-2.66245 1.38983,-3.18114 l -3.00931,-0.31281 4.00825,-4.36885 c 2.20446,-2.40285 4.00824,-4.53665 4.00824,-4.7418 0,-0.20514 -1.84184,-0.37297 -4.09296,-0.37297 -3.64673,0 -4.58233,0.54406 -8.58349,4.99138 -3.12888,3.47773 -5.25282,4.99137 -7.00378,4.99137 -2.15751,0 -2.17229,0.26427 -1.65303,2.33179 4.18585,-1.43465 -0.86478,3.3982 -10.38609,10.55927 -5.90454,4.44095 -11.85941,8.97391 -13.23295,10.07326 -3.35196,2.68275 -10.95089,6.35587 -11.66754,5.63972 -0.31626,-0.31599 1.5104,-2.89234 4.05911,-5.72523 4.7946,-5.32923 6.01301,-8.02538 5.44352,-12.0458 -0.26832,-1.89447 -1.02191,-2.40547 -3.90396,-2.64709 -2.7445,-0.23011 -4.79372,0.52251 -8.84991,3.25027 -3.46073,2.32739 -5.06094,2.98364 -4.64707,1.90579 1.17427,-3.05805 -0.34563,-5.35577 -3.54283,-5.35577 -2.81852,0 -6.74457,1.47853 -7.85847,2.95947 -0.90725,1.20611 -20.41465,14.68822 -23.6753,16.36264 -1.75833,0.90292 -4.55816,1.64168 -6.22189,1.64168 -2.8365,0 -2.95647,-0.15042 -1.92497,-2.41275 0.73324,-1.60826 3.66593,-3.58485 8.79558,-5.92815 8.83962,-4.03798 10.30927,-5.42648 9.86274,-9.31812 -0.28139,-2.45256 -0.79376,-2.84464 -4.07129,-3.11567 -4.48642,-0.37096 -11.12549,2.97059 -17.56365,8.84001 -2.38207,2.17167 -4.59564,3.94849 -4.91908,3.94849 -0.68397,0 3.89126,-5.32073 5.00468,-5.82005 0.41205,-0.18481 0.74919,-1.87086 0.74919,-3.74677 0,-2.89907 -0.34662,-3.41078 -2.31043,-3.41078 -3.58719,0 -9.65558,7.30313 -9.69202,11.66411 -0.0201,2.40187 -9.51472,9.29968 -12.80072,9.29968 h -2.57367 l 3.54235,-3.74353 c 7.35449,-7.77224 9.56963,-13.10732 6.65272,-16.02233 -2.19915,-2.19768 -5.54211,-1.23837 -11.63546,3.33904 -5.6399,4.23681 -8.17962,7.73905 -6.69098,9.22676 0.34993,0.34963 1.57991,0.0467 2.73338,-0.6732 6.6888,-5.32647 5.30347,-4.04674 1.31172,0.53692 -1.50791,3.54314 -1.72207,7.36579 -0.49538,8.8429 2.72002,3.27525 15.78057,0.0455 19.9065,-4.92265 0.71952,-0.86642 2.82658,-1.5753 4.68223,-1.5753 2.87344,0 3.37402,0.34728 3.37402,2.34099 0,7.12877 9.60151,7.47699 20.9178,0.75861 3.88538,-2.30674 7.84838,-4.99935 8.80656,-5.9836 2.48686,-2.55436 13.31316,-10.3432 13.7584,-9.89826 0.20528,0.20511 -2.97635,4.75896 -7.0702,10.1197 -4.09385,5.36072 -7.4433,9.94971 -7.4433,10.19777 0,0.24806 1.63786,0.45102 3.63964,0.45102 3.18682,0 4.66485,-0.98348 11.87861,-7.90441 7.3391,-7.04117 13.98905,-11.85616 14.99128,-10.85465 0.1956,0.19548 -1.24247,2.36241 -3.1956,4.81541 -4.28777,5.38496 -5.63842,8.61568 -4.87414,11.65855 0.46531,1.85295 1.25528,2.2851 4.17727,2.2851 4.03722,0 14.44549,-4.85245 18.38989,-8.57351 3.07645,-2.90225 4.38884,-3.11235 2.97725,-0.4766 -0.5687,1.06199 -1.03401,3.53273 -1.03401,5.49051 0,3.40739 0.15054,3.5596 3.52118,3.5596 2.04802,0 6.47932,-1.48868 10.59125,-3.55805 3.88848,-1.95691 7.32173,-3.30648 7.62942,-2.99905 0.30766,0.30745 0.037,1.70508 -0.60186,3.10588 -1.28076,2.80896 -1.54697,7.7243 -0.4764,8.79416 0.3766,0.37636 2.24031,0.5796 4.1416,0.45164 2.79304,-0.18798 4.16459,-1.12725 7.14122,-4.89055 z M 545.76191,362.32148 c 0.55701,-1.02711 2.70073,-2.99871 4.49913,-4.64587 l 3.26992,-2.99484 -3.25694,4.22883 c -3.62755,4.71008 -10.12904,9.37044 -4.51211,3.41188 z m 39.36095,-1.93903 c 0,-1.44362 3.52776,-4.22884 5.94569,-4.69419 1.65575,-0.31863 1.96541,-0.1195 1.21261,0.77971 -1.56194,1.86555 -7.1583,4.92593 -7.1583,3.91448 z m -308.78453,16.13303 c 2.19556,-0.43883 3.31388,-1.33992 3.73273,-3.0078 1.29483,-5.15543 -4.2294,-6.98803 -10.11227,-3.35463 l -3.23107,1.99556 -2.65068,-2.08369 c -6.34449,-4.98723 -7.31794,-14.46252 -3.0172,-29.36702 1.42479,-4.9376 3.20688,-11.14781 3.96039,-13.80047 2.28888,-8.05872 17.49174,-40.65186 30.79164,-66.01392 14.51459,-27.67824 16.31301,-30.96263 19.96102,-36.45496 1.99748,-3.00726 3.63185,-5.80666 3.63185,-6.22088 0,-0.41423 4.87044,-8.73513 10.82311,-18.49087 5.9528,-9.75575 11.00992,-18.23602 11.23809,-18.84506 0.58828,-1.5699 16.38532,-25.46928 36.39849,-55.06707 10.32184,-15.26523 17.10454,-27.142514 17.87154,-31.295114 0.24123,-1.30641 0.50645,-2.37531 0.58937,-2.37531 0.0829,0 0.33873,-0.89845 0.5688,-1.99655 2.88543,-13.77806 2.23051,-24.53065 -4.96425,-31.25604 -7.0567,-6.59633 -9.42527,-11.42671 -25.81964,-11.42671 -11.72309,0 -18.5844,3.56079 -24.22882,5.62776 -9.68834,3.5478 -13.31294,7.2253 -17.82635,11.78902 -4.07628,4.12161 -12.35676,15.78254 -13.0819,19.38015 -0.20987,1.041 -0.85808,3.12354 -1.44056,4.62788 -1.10173,2.84527 -4.11305,20.203174 -4.11305,23.708404 0,1.46797 0.66151,2.0073 2.46219,2.0073 3.41068,0 4.5304,-2.66411 4.5304,-10.77915 2.25,-22.030904 8.24093,-31.250534 25.21141,-42.647624 6.11151,-4.104387 12.50879,-6.19275 20.20424,-6.06175 13.94828,0.23744 19.40929,3.58074 23.95776,12.87133 4.17486,8.52747 4.30393,13.61084 0.62603,24.67365 -3.51217,10.564364 -13.79366,29.362084 -24.01442,43.905624 -6.56114,9.33597 -11.76972,17.78462 -15.57837,25.2691 -7.58337,8.71489 -10.24541,21.2008 -17.97364,30.33149 -4.7525,8.16076 -8.81636,16.70927 -12.5349,23.52368 -11.6071,21.24073 -31.20841,59.8401 -35.86035,70.61709 -1.77753,4.11788 -4.23821,9.73318 -5.46831,12.47844 -12.32334,27.50294 -18.30757,52.69359 -15.58516,65.60544 0.6621,3.1399 1.9614,6.60791 2.88752,7.70669 3.71468,4.40744 10.19671,5.99649 18.05436,4.42601 z m 244.35288,-3.87894 c 12.05351,-4.89259 17.00016,-10.06713 17.36727,-18.16716 0.286,-6.31045 -2.15721,-8.27395 -10.29567,-8.27395 -10.33094,0 -24.92507,6.8646 -32.79431,15.42542 -2.59515,2.82317 -3.69957,6.53664 -1.94415,6.53664 0.44165,0 2.35211,-1.61747 4.2455,-3.59438 3.89386,-4.06567 12.28738,-10.00936 18.83143,-13.33512 3.0216,-1.5356 6.225,-2.24777 10.22285,-2.27275 8.87508,-0.0554 10.73721,2.62469 6.95373,10.00799 -2.22204,4.33599 -5.92892,7.25875 -14.11023,11.12529 -5.27123,2.49123 -7.0781,2.80757 -16.38043,2.86764 -9.02301,0.0582 -10.80544,-0.2074 -13.0081,-1.93888 -3.62167,-2.84689 -3.33956,-7.13379 0.9473,-14.39868 6.59201,-11.17108 20.47448,-21.79776 30.15212,-23.08053 3.17562,-0.42095 4.21083,-0.0748 6.23018,2.08316 4.56566,4.87914 12.10655,2.35655 8.66172,-2.89751 -1.50872,-2.30108 -2.4663,-2.65282 -8.0106,-2.94268 -3.56673,-0.18647 -2.96816,-2.55284 0.6457,-2.55284 8.42087,0 34.54417,-11.96926 37.81199,-17.32485 2.50694,-4.10858 2.43471,-8.11929 -0.1936,-10.74582 -1.89369,-1.89244 -2.97323,-2.07027 -10.23914,-1.68661 -6.99867,0.36955 -9.11141,0.94884 -15.27318,4.18775 -12.28347,6.45669 -17.9061,12.46299 -19.26367,20.57814 l -0.58449,3.49398 -7.21025,0.29294 c -8.6572,0.3517 -14.62818,-1.09001 -17.85036,-4.31005 -1.89079,-1.88951 -2.38248,-3.43671 -2.38248,-7.49608 0,-4.58317 0.39689,-5.51979 3.81646,-9.00594 5.43194,-5.53778 7.72871,-6.32807 27.40044,-9.42838 3.88328,-0.61201 4.85524,-1.85746 2.23422,-2.86261 -2.40724,-0.92311 -15.75868,1.10278 -21.40998,3.24868 -12.95446,4.91904 -18.75331,14.64325 -14.62309,24.52177 2.33522,5.58518 4.85836,6.51833 20.06342,7.42037 11.96002,0.70955 11.98278,0.92134 0.49946,4.63499 -8.45352,2.73381 -18.21018,7.91635 -21.85562,11.60918 -8.59687,8.70891 -10.37648,21.49007 -3.83812,27.56679 3.4052,3.16483 8.32657,4.17835 18.70117,3.85146 7.66517,-0.24151 10.83441,-0.84479 16.48251,-3.13737 z m 10.23367,-38.47142 c 0,-0.54906 0.73121,-0.94727 1.31308,-0.94727 0.58177,0 1.74986,1.31635 1.41032,1.8654 -0.33964,0.54905 -1.78543,0.13115 -2.02777,0.13115 -0.24224,0 -0.69563,-0.50024 -0.69563,-1.04928 z m -4.70414,-9.75187 c 0.14496,-2.78076 6.75874,-10.71655 12.88933,-15.46589 9.96902,-7.72287 22.63839,-11.25169 24.86492,-6.92563 2.71883,5.28283 -6.51669,12.4905 -23.51216,18.34949 -12.41872,4.2812 -14.28214,4.81006 -14.24209,4.04203 z m 200.18214,48.23649 c 3.19341,-1.92168 6.40493,-3.49397 7.13663,-3.49397 2.7386,0 6.4191,-2.38136 6.4191,-4.15333 0,-1.94153 -2.4506,-2.52891 -3.4963,-0.83804 -0.3397,0.54905 -1.1528,0.99922 -1.8072,1.00038 -0.8334,9.9e-4 -1.0889,-1.9518 -0.8532,-6.52259 0.2887,-5.59782 0.6789,-6.74888 2.7471,-8.10311 2.7609,-1.80778 3.1422,-3.34538 0.8295,-3.34538 -2.1965,0 -24.32218,15.18721 -24.36033,16.72113 -0.058,2.33954 3.17882,1.25339 9.56944,-3.21096 3.51038,-2.45234 6.38265,-4.30514 6.38265,-4.11733 0,1.64192 -5.31247,11.65348 -7.33183,13.81709 -3.30879,3.54514 -4.65546,3.47294 -4.65546,-0.24959 0,-2.63744 -0.34492,-2.99482 -2.88994,-2.99482 -2.88843,0 -4.10265,1.44238 -4.10265,4.87338 0,5.32056 8.09092,5.62481 16.41249,0.61714 z M 143.35261,361.22269 c 9.80997,-2.18369 12.7143,-3.26653 26.2111,-9.77239 12.16469,-5.86381 17.20913,-9.09274 31.08731,-19.89909 14.56466,-11.34084 31.60257,-28.3737 44.77051,-44.75719 5.73501,-7.13548 10.74431,-13.19818 11.1317,-13.47271 0.72521,-0.51388 15.92818,-20.9834 23.87455,-32.1451 2.46241,-3.4587 6.39573,-8.66442 8.74074,-11.56831 2.3451,-2.9039 4.26376,-5.93616 4.26376,-6.73837 0,-3.5039 -3.15544,-0.76342 -10.0658,8.74204 -4.07859,5.61034 -8.13678,10.93551 -9.01813,11.83375 -0.88138,0.89822 -5.35824,6.75242 -9.94845,13.00931 -14.38935,19.61383 -27.89901,35.72693 -42.77284,51.0155 -7.90129,8.12168 -14.73336,14.76668 -15.18229,14.76668 -0.44903,0 -2.01506,1.11024 -3.48021,2.4672 -6.74484,6.24667 -30.59074,18.53328 -45.60061,23.49561 -12.79714,4.23083 -37.73469,4.31629 -49.73458,0.17043 -16.962669,-5.86045 -30.741119,-15.75174 -41.665669,-29.91099 -12.44082,-16.12449 -18.77412,-31.41883 -24.89194,-60.11189 -2.48657,-11.66214 -2.99678,-42.67731 -0.93627,-56.9131 1.85723,-12.83125 8.92465,-43.7311 11.06546,-48.37983 0.76491,-1.661 2.75173,-6.49009 4.41517,-10.73137 12.50599,-31.88657 36.90595,-67.341764 57.507409,-83.563114 13.22175,-10.41065 39.19307,-23.76438 49.67953,-25.543834 1.7954,-0.304654 5.96148,-1.187693 9.25797,-1.962308 14.73957,-3.463519 18.76001,-3.953924 31.9661,-3.8992 24.04304,-0.515203 39.98586,6.558636 54.79779,23.368802 11.98046,13.91837 18.42304,46.8353 12.66685,64.718354 -3.39441,10.54554 -7.31874,19.61131 -9.57255,22.11424 -1.23597,1.37262 -3.09282,3.91128 -4.12623,5.64146 -1.0335,1.73017 -5.11785,6.55317 -9.07636,10.71775 -8.39359,8.8303 -19.92986,15.67143 -31.4852,18.67101 -9.11733,2.36669 -13.55502,2.37442 -21.98557,0.0382 -6.18824,-1.71483 -17.68436,-8.1285 -17.69533,-9.87221 0,-0.40619 -1.36707,-2.19124 -3.03238,-3.96679 -6.4227,-6.84811 -11.08235,-24.25915 -8.02289,-29.97795 0.51005,-0.95339 1.94742,-3.96783 3.19421,-6.69877 6.47722,-14.18787 25.03584,-22.513044 36.80776,-16.51149 12.09305,6.16532 17.81808,21.41597 11.96948,31.88468 -3.12358,5.59091 -6.20281,7.81754 -12.39144,8.96041 -12.20546,2.25401 -21.59501,-7.94411 -15.07531,-16.37344 1.17405,-1.51789 1.40241,-1.58837 0.95249,-0.29395 -0.69177,1.99033 3.62706,6.78276 6.11242,6.78276 0.89136,0 2.98053,-1.359 4.64266,-3.01997 2.43443,-2.43283 2.89324,-3.54877 2.3599,-5.74008 -0.36413,-1.49608 -1.64613,-3.52291 -2.84908,-4.50408 -6.02869,-4.91758 -17.67054,2.822 -17.67054,11.74749 0,8.14193 8.37961,16.52669 17.2513,17.26191 8.69716,0.72074 16.07125,-3.58217 21.23807,-12.39279 4.13791,-7.05622 4.02661,-15.67842 -0.31667,-24.51734 -1.99209,-4.05416 -5.01688,-8.2067 -7.69164,-10.55958 -7.07281,-6.221584 -17.92,-8.741884 -26.4919,-6.155294 -1.91936,0.57916 -4.32621,1.23679 -5.34863,1.461404 -3.49109,0.76698 -12.55227,8.64854 -16.12219,14.02326 -7.21804,10.86718 -9.09195,21.81423 -5.65032,33.00789 9.33411,30.35849 39.50609,42.47343 70.64237,28.36495 10.85117,-4.91691 25.53791,-17.88974 33.39047,-29.49413 1.85774,-2.74527 3.65514,-5.21601 3.99416,-5.49052 1.05999,-0.85826 7.05493,-11.97931 6.45755,-11.97931 -0.31188,0 -0.21017,-0.56154 0.22587,-1.24785 0.43613,-0.68632 0.81892,-1.47245 0.85079,-1.74698 0.11064,-0.95392 2.61444,-8.49729 3.47913,-10.4819 2.92529,-6.71387 3.87288,-23.078904 1.89017,-32.644394 -9.16186,-29.663554 -28.52496,-52.34511 -51.80134,-56.633829 -29.73866,-6.629908 -57.45829,0.791812 -77.8462,7.621951 -9.68284,3.232718 -28.03024,12.073918 -31.88103,15.362738 -0.93532,0.79882 -4.84724,3.6658 -8.69317,6.37104 -9.00058,6.33107 -31.345539,28.66675 -38.974889,38.95869 -3.25607,4.39242 -6.63112,8.762054 -7.50011,9.710314 -1.93619,2.11281 -16.27659,27.77424 -18.44949,33.01445 -0.86481,2.08559 -2.91261,6.71623 -4.55067,10.29033 -1.63805,3.57407 -3.11978,7.25837 -3.29271,8.18731 -0.17295,0.92895 -2.14511,7.52891 -4.38259,14.66656 -4.83614,15.42756 -6.20906,21.0315 -6.82309,27.85027 -0.25223,2.80107 -0.96854,8.46201 -1.5918,12.5799 -1.52548,10.0789 -1.45511,36.12405 0.1308,48.41638 0.70837,5.49052 1.27721,10.6566 1.26408,11.48016 -0.0562,3.52652 5.02203,21.43709 8.59113,30.30023 6.16169,15.30135 12.38482,24.82045 23.63444,36.15203 12.45576,12.54653 25.17983,20.49517 38.33146,23.94544 11.760929,3.08542 32.199249,3.31264 44.841449,0.49852 z m 574.01566,-13.48914 c 3.99644,-3.65816 4.54806,-7.02863 1.15017,-7.02863 -1.82416,0 -8.52805,7.51603 -8.52805,9.56123 0,2.03518 3.82045,0.72372 7.37788,-2.5326 z M 373.48536,277.01429 c 6.03222,-3.70871 24.83565,-22.40439 24.83565,-24.6933 0,-2.42281 -2.72762,0.47129 -8.83041,6.2136 -5.90168,5.58061 -16.41574,15.81766 -22.56627,16.10189 -6.52922,0.14599 -6.36016,-5.7238 -4.59263,-9.01726 1.1254,-2.07795 2.56259,-4.50317 3.19371,-5.38937 1.83926,-2.58275 0.2926,-4.87751 -3.28732,-4.87751 -2.57106,0 -4.29864,1.14535 -9.01383,5.97585 -9.25349,9.47983 -19.01293,13.36637 -27.69642,11.0297 -5.1712,-1.39156 -6.47651,-3.78647 -5.82192,-10.68157 0.60206,-6.34116 2.08509,-8.88808 7.89512,-13.5593 8.83872,-7.10619 17.80242,-9.71459 30.53292,-8.8849 l 2.26789,0.14782 -1.99149,3.901 c -1.09524,2.14556 -2.53391,4.08171 -3.19681,4.30255 -0.76539,0.25494 -0.92402,1.10851 -0.43464,2.33821 0.67579,1.69827 1.55305,1.08828 7.12665,-4.9552 9.13181,-9.90179 9.74386,-15.25488 2.11075,-18.4621 -6.93844,-2.91539 -13.67717,-1.90077 -26.43285,3.97983 -18.37782,8.47243 -31.496,29.17767 -24.48733,38.64977 4.4217,5.97587 13.09132,8.47922 23.2906,6.72512 5.57667,-0.95912 7.12454,-1.76392 12.23912,-6.36373 l 4.07089,-3.66115 -0.68988,2.77662 c -0.53124,2.13802 -0.0928,3.55917 1.90727,6.17931 5.73592,5.41269 13.09074,6.11579 19.57123,2.22412 z m 149.69701,-60.5798 c 1.21999,-2.94338 7.52212,-7.51856 14.21993,-10.3233 4.99408,-2.09131 9.43048,-6.2847 12.38185,-11.7038 3.3803,-6.20658 6.45775,-8.25941 13.36202,-8.91322 3.97048,-0.37598 5.49416,-0.93308 5.49416,-2.00887 0,-2.20478 -10.08199,-5.93175 -16.14377,-5.96781 -6.58521,-0.0391 -16.36105,2.99396 -20.96835,6.50576 -2.06162,1.57148 -4.55886,4.90106 -5.87387,7.8318 -2.64628,5.89765 -4.29135,14.21183 -2.60603,13.17095 15.02907,-17.89478 0.20188,1.26187 -0.86778,3.61721 -2.00567,4.41615 -2.66116,10.77121 -1.11113,10.77121 0.48279,0 1.43357,-1.34096 2.11297,-2.97993 z m 157.21172,-2.13502 c 2.90582,-1.32312 8.2081,-8.3764 9.16698,-12.19435 0.85658,-3.41085 -0.93991,-5.65104 -4.5318,-5.65104 -3.56242,0 -7.56158,3.20619 -10.02965,8.04079 -2.2706,4.44768 -2.49766,7.41703 -0.72135,9.43318 1.53308,1.74021 2.92411,1.8247 6.11582,0.37142 z"
       id="path3865"
       inkscape:connector-curvature="0"
       sodipodi:nodetypes="cccccsccccscccscscscscccscccccscccccccccsscsccccccccscccscccsccsccccccccscsccccccscssccccsccccccccccccsccscccscscsccccccccccccsscccccccscsccccccssccccscssscccscssccsccccsccscscsscscsccccccccccsccccccccsccsssccsscsccccccsccsccscccccscsscscccccccccsscccsssscccsccssccccsccscccsccscccccccccsccccsccsccccssscsssccccccccccsscscsccccccccccsccscccscscccccscccccsccsscccsccssccccsccssssscsscccccsccccsccsssccsscssccccccccccccccccscccscccccssccccscccccccssscccsssscsssscssccscsccccsccscccccccsccccccccccscccccsccccccccc"
       inkscape:export-xdpi="96"
       inkscape:export-ydpi="96" />
  </g>
</svg>
